<svg width="20" height="20" viewBox="0 0 20 20" fill="none" xmlns="http://www.w3.org/2000/svg">
<path d="M9.19112 7.88095C8.86756 6.58571 5.82076 2.75397 4.33781 1C5.95557 3.26667 6.89928 8.69048 7.16891 11.119C6.5218 9.5 2.85485 6.93651 1.10227 5.85714L1.50671 6.2619C2.15382 6.90952 3.12448 8.15079 3.52892 8.69048L4.33781 13.1429L9.59556 18C9.73037 17.4603 10 16.0571 10 14.7619C10 13.1429 9.59556 9.5 9.19112 7.88095Z" fill="#2D2B2E"/>
<path opacity="0.3" d="M10.0741 7.70893C10.4267 6.44607 13.7468 2.71012 15.3628 1C13.5999 3.21 12.5715 8.49821 12.2777 10.8661C12.9829 9.2875 16.9788 6.7881 18.8886 5.73571L18.4478 6.13036C17.7427 6.76179 16.6849 7.97202 16.2442 8.49821L15.3628 12.8393L12.2777 14.8125C12.1308 14.2863 12.2777 12.05 11.837 10.8661C11.2795 9.36851 9.63336 9.2875 10.0741 7.70893Z" fill="#2D2B2E"/>
</svg>
