<svg width="20" height="20" viewBox="0 0 20 20" fill="none" xmlns="http://www.w3.org/2000/svg">
<path fill-rule="evenodd" clip-rule="evenodd" d="M7.42489 8.0885C3.88444 6.27611 3.18967 3.27434 3.28485 2C2.25698 3.35929 2 5.39823 2 6.24779H3.85588L2.14276 6.95575L2.85656 8.37168H4.8552L3.4276 9.07965L4.1414 9.9292C4.47451 9.78761 5.28348 9.56106 5.85452 9.78761C6.42556 10.0142 6.85384 10.7316 6.9966 11.0619C6.05846 11.2035 5.89341 11.9242 5.99728 12.3363C6.14004 12.9027 6.71108 13.3274 7.42489 13.0995C8.10024 12.8838 8.18627 12.3259 8.13868 12.0531L7.42489 8.0885ZM12.5751 8.0885C16.1156 6.27611 16.8103 3.27434 16.7152 2C17.743 3.35929 18 5.39823 18 6.24779H16.1441L17.8572 6.95575L17.1434 8.37168H15.1448L16.5724 9.07965L15.8586 9.9292C15.5255 9.78761 14.7165 9.56106 14.1455 9.78761C13.5744 10.0142 13.1462 10.7316 13.0034 11.0619C13.9415 11.2035 14.1066 11.9242 14.0027 12.3363C13.86 12.9027 13.2889 13.3274 12.5751 13.0995C11.8998 12.8838 11.8137 12.3259 11.8613 12.0531L12.5751 8.0885ZM7.85313 5.53982L8.99521 2.99115H10.9938L12.1359 5.53982L10.4228 9.50442V14.0354L11.2794 16.5841L10.4228 18H9.56625L8.70969 16.5841L9.56625 14.0354V9.50442L7.85313 5.53982ZM10.4228 4.12389H9.56623L8.99519 5.25663L9.99451 7.80531L10.9938 5.25663L10.4228 4.12389Z" fill="#2D2B2E"/>
</svg>
